<!DOCTYPE svg PUBLIC "-//W3C//DTD SVG 1.1//EN" "http://www.w3.org/Graphics/SVG/1.1/DTD/svg11.dtd">

<!-- Uploaded to: SVG Repo, www.svgrepo.com, Transformed by: SVG Repo Mixer Tools -->
<svg width="56px" height="56px" viewBox="0 0 24 24" id="Layer_1" data-name="Layer 1" xmlns="http://www.w3.org/2000/svg" fill="#ffffff" stroke="#ffffff">

<g id="SVGRepo_bgCarrier" stroke-width="0"/>

<g id="SVGRepo_tracerCarrier" stroke-linecap="round" stroke-linejoin="round"/>

<g id="SVGRepo_iconCarrier">

<defs>

<style>.cls-1{fill:none;stroke:#ffffff;stroke-miterlimit:10;stroke-width:1;}</style>

</defs>

<path class="cls-1" d="M12,1.5h0A10.5,10.5,0,0,1,22.5,12v0a1.91,1.91,0,0,1-1.91,1.91H3.41A1.91,1.91,0,0,1,1.5,12v0A10.5,10.5,0,0,1,12,1.5Z"/>

<circle class="cls-1" cx="12" cy="3.41" r="1.91"/>

<circle class="cls-1" cx="18.68" cy="9.14" r="1.91"/>

<circle class="cls-1" cx="7.23" cy="9.14" r="1.91"/>

<path class="cls-1" d="M12,22.5h0a3.83,3.83,0,0,0,3.74-4.66l-.88-3.93H9.14l-.88,3.93A3.83,3.83,0,0,0,12,22.5Z"/>

</g>

</svg>